<?xml version="1.0" encoding="utf-8"?>
<svg version="1.1" id="Livello_1" x="0px" y="0px" viewBox="0 0 304.3 96.5" style="enable-background:new 0 0 304.3 96.5;" xmlns="http://www.w3.org/2000/svg">
  <defs/>
  <style type="text/css">
	.st0{fill:#FFFFFF;}
</style>
  <g>
    <path class="st0" d="M84.6,4.3l-5.5,8c11.4,7.9,18.9,21.1,18.9,36c0,14.9-7.5,28-18.9,36l5.6,8c13.9-9.7,23-25.7,23-44&#10;&#9;&#9;C107.6,30,98.5,13.9,84.6,4.3" style=""/>
    <path class="st0" d="M29.2,12.3l-5.5-8c-13.9,9.7-23,25.7-23,44c0,18.2,9.1,34.3,23,44l5.5-8c-11.4-7.9-18.9-21.1-18.9-36&#10;&#9;&#9;C10.4,33.3,17.8,20.2,29.2,12.3" style=""/>
    <path class="st0" d="M133.6,33.7c2.1-1.2,4.2-1.9,6.5-2.2c2.3-0.3,4.5-0.1,6.6,0.5c2.1,0.6,4.1,1.5,5.9,2.9&#10;&#9;&#9;c1.8,1.4,3.3,3.1,4.5,5.2l1.7,3l-23.4,13.5c0.8,0.7,1.7,1.2,2.7,1.7c1,0.4,2,0.7,3,0.8c1,0.1,2.1,0,3.1-0.2c1-0.2,2.1-0.6,3-1.2&#10;&#9;&#9;c1.2-0.7,2.2-1.6,3.1-2.7c0.8-1.1,1.4-2.3,1.7-3.5l6.7,1.8c-0.6,2.1-1.5,4.1-2.9,5.9c-1.4,1.8-3.1,3.3-5.2,4.5&#10;&#9;&#9;c-2.1,1.2-4.2,1.9-6.5,2.2c-2.3,0.3-4.4,0.1-6.6-0.5c-2.1-0.6-4.1-1.5-5.9-2.9c-1.8-1.4-3.3-3.1-4.5-5.1c-1.2-2.1-1.9-4.2-2.2-6.5&#10;&#9;&#9;c-0.3-2.3-0.1-4.5,0.5-6.6c0.6-2.1,1.5-4.1,2.9-5.9C129.8,36.4,131.5,34.9,133.6,33.7 M137.1,39.7c-1,0.6-1.8,1.2-2.5,2&#10;&#9;&#9;c-0.7,0.8-1.3,1.7-1.7,2.6c-0.4,1-0.7,2-0.8,3c-0.1,1.1-0.1,2.1,0.1,3.2l16.8-9.7c-0.8-0.7-1.7-1.2-2.7-1.7s-2-0.7-3-0.8&#10;&#9;&#9;c-1-0.1-2.1-0.1-3.1,0.2C139,38.8,138,39.1,137.1,39.7" style="fill: rgb(255, 86, 0);"/>
    <path class="st0" d="M175.9,38v13.9h0.1c0,0.9,0.2,1.8,0.5,2.7c0.4,0.8,0.9,1.6,1.5,2.2c0.6,0.6,1.4,1.1,2.2,1.5&#10;&#9;&#9;c0.8,0.4,1.7,0.5,2.6,0.5v6.9c-1.9,0-3.7-0.4-5.4-1.1c-1.7-0.7-3.1-1.7-4.4-3c-1.2-1.2-2.2-2.7-3-4.4c-0.7-1.7-1.1-3.5-1.1-5.4V38&#10;&#9;&#9;h-6.9v-6.8h6.9V17.4h6.9v13.8h6.9V38H175.9z" style="fill: rgb(255, 86, 0);"/>
    <path class="st0" d="M192.9,16c0.7,0,1.3,0.1,1.9,0.4c0.6,0.3,1.1,0.6,1.6,1c0.4,0.4,0.8,1,1.1,1.5c0.3,0.6,0.4,1.2,0.4,1.9&#10;&#9;&#9;c0,0.7-0.1,1.3-0.4,1.9c-0.3,0.6-0.6,1.1-1.1,1.6c-0.4,0.4-1,0.8-1.6,1.1c-0.6,0.3-1.2,0.4-1.9,0.4c-0.7,0-1.3-0.1-1.9-0.4&#10;&#9;&#9;c-0.6-0.3-1.1-0.6-1.5-1.1c-0.4-0.4-0.8-1-1-1.6c-0.3-0.6-0.4-1.2-0.4-1.9c0-0.7,0.1-1.3,0.4-1.9c0.3-0.6,0.6-1.1,1-1.5&#10;&#9;&#9;c0.4-0.4,0.9-0.8,1.5-1C191.6,16.1,192.2,16,192.9,16 M189.5,31.2h6.9v34.4h-6.9V31.2z" style="fill: rgb(255, 86, 0);"/>
    <path class="st0" d="M220.4,31.1c2.4,0,4.6,0.5,6.7,1.4c2.1,0.9,3.9,2.1,5.5,3.7c1.6,1.6,2.8,3.4,3.7,5.5c0.9,2.1,1.4,4.3,1.4,6.7&#10;&#9;&#9;v17.3h-6.9V48.4c0-1.4-0.3-2.8-0.8-4c-0.5-1.3-1.3-2.3-2.2-3.3c-0.9-0.9-2-1.7-3.3-2.2s-2.6-0.8-4-0.8s-2.8,0.3-4,0.8&#10;&#9;&#9;c-1.3,0.5-2.4,1.3-3.3,2.2c-0.9,0.9-1.7,2-2.2,3.3c-0.5,1.3-0.8,2.6-0.8,4v17.3h-6.9V31.1h6.9l0,3.5c1.5-1.1,3-2,4.8-2.6&#10;&#9;&#9;C216.6,31.4,218.5,31.1,220.4,31.1" style="fill: rgb(255, 86, 0);"/>
    <path class="st0" d="M261.7,31.2c2.4,0,4.6,0.4,6.7,1.3c2.1,0.9,3.9,2.1,5.5,3.7c1.6,1.6,2.8,3.4,3.7,5.5c0.9,2.1,1.3,4.3,1.3,6.7&#10;&#9;&#9;v3.5h-27c0.4,1,0.9,1.9,1.5,2.8s1.4,1.6,2.2,2.2c0.8,0.6,1.8,1.1,2.8,1.4c1,0.3,2.1,0.5,3.2,0.5c1.4,0,2.7-0.3,4-0.8&#10;&#9;&#9;c1.3-0.5,2.4-1.3,3.3-2.2l4.9,4.9c-1.6,1.6-3.4,2.8-5.5,3.7c-2.1,0.9-4.3,1.3-6.7,1.3c-2.4,0-4.6-0.4-6.7-1.3&#10;&#9;&#9;c-2.1-0.9-3.9-2.1-5.5-3.7c-1.6-1.6-2.8-3.4-3.7-5.5s-1.3-4.3-1.3-6.7c0-2.4,0.4-4.6,1.3-6.7c0.9-2.1,2.1-3.9,3.7-5.5&#10;&#9;&#9;c1.6-1.6,3.4-2.8,5.5-3.7C257.1,31.6,259.3,31.2,261.7,31.2 M261.7,38.1c-1.1,0-2.2,0.2-3.2,0.5c-1,0.3-2,0.8-2.8,1.4&#10;&#9;&#9;c-0.9,0.6-1.6,1.3-2.2,2.2c-0.6,0.9-1.1,1.8-1.5,2.8h19.4c-0.4-1-0.9-1.9-1.5-2.8c-0.6-0.8-1.4-1.6-2.2-2.2&#10;&#9;&#9;c-0.9-0.6-1.8-1.1-2.8-1.4C263.9,38.3,262.9,38.1,261.7,38.1" style="fill: rgb(255, 86, 0);"/>
    <path class="st0" d="M296.1,38v13.9h0.1c0,0.9,0.2,1.8,0.5,2.7c0.4,0.8,0.9,1.6,1.5,2.2c0.6,0.6,1.3,1.1,2.2,1.5&#10;&#9;&#9;c0.8,0.4,1.7,0.5,2.6,0.5v6.9c-1.9,0-3.7-0.4-5.4-1.1c-1.7-0.7-3.1-1.7-4.4-3c-1.2-1.2-2.2-2.7-3-4.4c-0.7-1.7-1.1-3.5-1.1-5.4V38&#10;&#9;&#9;h-6.9v-6.8h6.9V17.4h6.9v13.8h6.9V38H296.1z" style="fill: rgb(255, 86, 0);"/>
  </g>
</svg>